<svg id="Calque_1" data-name="Calque 1" xmlns="http://www.w3.org/2000/svg" xmlns:xlink="http://www.w3.org/1999/xlink" viewBox="0 0 242.44 297.05"><defs><style>.cls-1,.cls-10,.cls-11,.cls-12,.cls-13,.cls-14,.cls-15,.cls-16,.cls-2,.cls-3,.cls-4,.cls-5,.cls-6,.cls-7,.cls-8,.cls-9{fill:none;stroke-linecap:round;stroke-miterlimit:10;}.cls-1{stroke:#000;stroke-width:3px;}.cls-10,.cls-11,.cls-12,.cls-13,.cls-14,.cls-15,.cls-16,.cls-2,.cls-3,.cls-4,.cls-5,.cls-6,.cls-7,.cls-8,.cls-9{stroke-width:4px;}.cls-2{stroke:url(#Dégradé_sans_nom_272);}.cls-3{stroke:url(#Dégradé_sans_nom_272-2);}.cls-4{stroke:url(#Dégradé_sans_nom_272-3);}.cls-5{stroke:url(#Dégradé_sans_nom_272-4);}.cls-6{stroke:url(#Dégradé_sans_nom_272-5);}.cls-7{stroke:url(#Dégradé_sans_nom_272-6);}.cls-8{stroke:url(#Dégradé_sans_nom_272-7);}.cls-9{stroke:url(#Dégradé_sans_nom_272-8);}.cls-10{stroke:url(#Dégradé_sans_nom_272-9);}.cls-11{stroke:url(#Dégradé_sans_nom_272-10);}.cls-12{stroke:url(#Dégradé_sans_nom_272-11);}.cls-13{stroke:url(#Dégradé_sans_nom_272-12);}.cls-14{stroke:url(#Dégradé_sans_nom_272-13);}.cls-15{stroke:url(#Dégradé_sans_nom_272-14);}.cls-16{stroke:url(#Dégradé_sans_nom_272-15);}</style><linearGradient id="Dégradé_sans_nom_272" x1="209.37" y1="86.41" x2="242.44" y2="86.41" gradientUnits="userSpaceOnUse"><stop offset="0" stop-color="#ffc700"/><stop offset="0.15" stop-color="#ffbe03"/><stop offset="0.4" stop-color="#ffa40c"/><stop offset="0.72" stop-color="#ff7b1b"/><stop offset="1" stop-color="#ff512a"/></linearGradient><linearGradient id="Dégradé_sans_nom_272-2" x1="158.62" y1="145.13" x2="213.37" y2="145.13" xlink:href="#Dégradé_sans_nom_272"/><linearGradient id="Dégradé_sans_nom_272-3" x1="181.52" y1="113.52" x2="213.37" y2="113.52" xlink:href="#Dégradé_sans_nom_272"/><linearGradient id="Dégradé_sans_nom_272-4" x1="0" y1="86.65" x2="34.05" y2="86.65" xlink:href="#Dégradé_sans_nom_272"/><linearGradient id="Dégradé_sans_nom_272-5" x1="30.05" y1="114.38" x2="60.92" y2="114.38" xlink:href="#Dégradé_sans_nom_272"/><linearGradient id="Dégradé_sans_nom_272-6" x1="0" y1="29.73" x2="60.92" y2="29.73" xlink:href="#Dégradé_sans_nom_272"/><linearGradient id="Dégradé_sans_nom_272-7" x1="0" y1="29.36" x2="90.24" y2="29.36" xlink:href="#Dégradé_sans_nom_272"/><linearGradient id="Dégradé_sans_nom_272-8" x1="30.05" y1="200.37" x2="123.22" y2="200.37" xlink:href="#Dégradé_sans_nom_272"/><linearGradient id="Dégradé_sans_nom_272-9" x1="30.05" y1="146.28" x2="84.03" y2="146.28" xlink:href="#Dégradé_sans_nom_272"/><linearGradient id="Dégradé_sans_nom_272-10" x1="119.22" y1="199.52" x2="213.37" y2="199.52" xlink:href="#Dégradé_sans_nom_272"/><linearGradient id="Dégradé_sans_nom_272-11" x1="152.69" y1="30.34" x2="242.44" y2="30.34" xlink:href="#Dégradé_sans_nom_272"/><linearGradient id="Dégradé_sans_nom_272-12" x1="181.52" y1="30.34" x2="242.44" y2="30.34" xlink:href="#Dégradé_sans_nom_272"/><linearGradient id="Dégradé_sans_nom_272-13" x1="56.92" y1="57.46" x2="185.52" y2="57.46" xlink:href="#Dégradé_sans_nom_272"/><linearGradient id="Dégradé_sans_nom_272-14" x1="56.92" y1="143.45" x2="123.22" y2="143.45" xlink:href="#Dégradé_sans_nom_272"/><linearGradient id="Dégradé_sans_nom_272-15" x1="119.22" y1="143.45" x2="185.52" y2="143.45" xlink:href="#Dégradé_sans_nom_272"/></defs><line class="cls-1" x1="233.69" y1="254.4" x2="8.75" y2="254.4"/><line class="cls-2" x1="211.37" y1="169.59" x2="240.44" y2="3.22"/><line class="cls-3" x1="160.62" y1="120.67" x2="211.37" y2="169.59"/><line class="cls-4" x1="183.52" y1="57.46" x2="211.37" y2="169.59"/><line class="cls-5" x1="2" y1="2" x2="32.05" y2="171.3"/><line class="cls-6" x1="58.92" y1="57.46" x2="32.05" y2="171.3"/><line class="cls-7" x1="2" y1="2" x2="58.92" y2="57.46"/><line class="cls-8" x1="88.24" y1="56.72" x2="2" y2="2"/><line class="cls-9" x1="32.05" y1="171.3" x2="121.22" y2="229.44"/><line class="cls-10" x1="82.03" y1="121.25" x2="32.05" y2="171.3"/><line class="cls-11" x1="121.22" y1="229.44" x2="211.37" y2="169.59"/><line class="cls-12" x1="154.69" y1="57.46" x2="240.44" y2="3.22"/><line class="cls-13" x1="183.52" y1="57.46" x2="240.44" y2="3.22"/><line class="cls-14" x1="58.92" y1="57.46" x2="183.52" y2="57.46"/><line class="cls-15" x1="121.22" y1="229.44" x2="58.92" y2="57.46"/><line class="cls-16" x1="183.52" y1="57.46" x2="121.22" y2="229.44"/><path d="M31,279.43l9,23.27a3.88,3.88,0,0,0,1.25,1.87,2.76,2.76,0,0,0,1.3.5v.74c-.5-.05-1.1-.08-1.81-.1H35.89c-.84,0-1.52.05-2,.1v-.74a3.64,3.64,0,0,0,2.41-.65c.34-.38.27-1.2-.22-2.46l-6.89-18.39.6-.48-6.44,16.72a8.48,8.48,0,0,0-.74,3.13,1.79,1.79,0,0,0,.85,1.61,5,5,0,0,0,2.37.52v.74c-.69-.05-1.42-.08-2.17-.1H20c-.43,0-.83.05-1.2.1v-.74a3.82,3.82,0,0,0,1.51-.87,5.93,5.93,0,0,0,1.41-2.35l8.7-22.42H31Zm4.51,15.72v.74h-11l.37-.74Z" transform="translate(-7.93 -9.28)"/><path d="M49.28,276.8v25.57a2.74,2.74,0,0,0,.65,2.11,3.32,3.32,0,0,0,2.16.55v.78l-1.9-.1c-.85,0-1.71,0-2.57,0s-1.69,0-2.56,0l-1.92.1V305a3.32,3.32,0,0,0,2.16-.55,2.7,2.7,0,0,0,.65-2.11V281.24a4.16,4.16,0,0,0-.59-2.46,2.63,2.63,0,0,0-2.22-.8v-.77c.79.07,1.55.11,2.29.11a17,17,0,0,0,2.06-.13A11,11,0,0,0,49.28,276.8Z" transform="translate(-7.93 -9.28)"/><path d="M60.12,286.35v16a2.74,2.74,0,0,0,.65,2.11,3.32,3.32,0,0,0,2.16.55v.78l-1.9-.1c-.85,0-1.71,0-2.57,0s-1.69,0-2.56,0l-1.92.1V305a3.37,3.37,0,0,0,2.17-.55,2.74,2.74,0,0,0,.64-2.11V290.79a4.15,4.15,0,0,0-.59-2.47,2.61,2.61,0,0,0-2.22-.79v-.78a22.61,22.61,0,0,0,2.29.11,15.18,15.18,0,0,0,2.06-.13A10.07,10.07,0,0,0,60.12,286.35ZM58.2,277.5a2.43,2.43,0,0,1,2.37,2.37,2.41,2.41,0,0,1-2.37,2.37,2.32,2.32,0,0,1-1.67-.7,2.28,2.28,0,0,1-.7-1.67,2.25,2.25,0,0,1,.7-1.66A2.29,2.29,0,0,1,58.2,277.5Z" transform="translate(-7.93 -9.28)"/><path d="M74.07,286.23a8.79,8.79,0,0,1,2.3.3,6.54,6.54,0,0,1,2,.89,4.16,4.16,0,0,1,1.3,1.27,3,3,0,0,1,.44,1.58,2,2,0,0,1-.55,1.53,1.94,1.94,0,0,1-1.41.54,2.22,2.22,0,0,1-1.42-.48,1.64,1.64,0,0,1-.61-1.37,2,2,0,0,1,.46-1.37,2.07,2.07,0,0,1,1.09-.67,2.83,2.83,0,0,0-1.31-1.11,4.77,4.77,0,0,0-2-.44,4.32,4.32,0,0,0-1.85.44,4.82,4.82,0,0,0-1.7,1.47,7.94,7.94,0,0,0-1.26,2.77A16.93,16.93,0,0,0,69,296a14.89,14.89,0,0,0,.74,5.18,5.68,5.68,0,0,0,1.94,2.75,4.52,4.52,0,0,0,2.65.83,5.81,5.81,0,0,0,2.92-.85,6.16,6.16,0,0,0,2.44-3l.71.26a8.64,8.64,0,0,1-1.23,2.39,6.49,6.49,0,0,1-5.58,2.76,7.56,7.56,0,0,1-4.15-1.19,8.33,8.33,0,0,1-2.94-3.38,11.67,11.67,0,0,1-1.09-5.24,12.41,12.41,0,0,1,1.09-5.35,8.77,8.77,0,0,1,3-3.62A7.84,7.84,0,0,1,74.07,286.23Z" transform="translate(-7.93 -9.28)"/><path d="M89,286.35v16a2.74,2.74,0,0,0,.64,2.11,3.35,3.35,0,0,0,2.17.55v.78l-1.91-.1c-.85,0-1.71,0-2.57,0s-1.69,0-2.55,0l-1.93.1V305a3.35,3.35,0,0,0,2.17-.55,2.74,2.74,0,0,0,.65-2.11V290.79a4.14,4.14,0,0,0-.6-2.47,2.61,2.61,0,0,0-2.22-.79v-.78a22.81,22.81,0,0,0,2.3.11,15,15,0,0,0,2.05-.13A10.39,10.39,0,0,0,89,286.35ZM87,277.5a2.41,2.41,0,0,1,2.37,2.37A2.39,2.39,0,0,1,87,282.24a2.41,2.41,0,0,1-2.37-2.37A2.43,2.43,0,0,1,87,277.5Z" transform="translate(-7.93 -9.28)"/><path d="M98.6,306.07a4.46,4.46,0,0,1-3.49-1.21,4.56,4.56,0,0,1-1.1-3.2,4.23,4.23,0,0,1,.76-2.57,6,6,0,0,1,2-1.66,17,17,0,0,1,2.49-1.11c.88-.31,1.71-.61,2.5-.91a8.13,8.13,0,0,0,1.94-1,1.67,1.67,0,0,0,.76-1.4v-2.3a4.91,4.91,0,0,0-.46-2.37,2.34,2.34,0,0,0-1.24-1.09A5.29,5.29,0,0,0,101,287a8.42,8.42,0,0,0-2,.26,3,3,0,0,0-1.68,1.08,2.13,2.13,0,0,1,1.22.74,2.23,2.23,0,0,1,.52,1.51,1.84,1.84,0,0,1-.6,1.46,2.15,2.15,0,0,1-1.51.54,1.85,1.85,0,0,1-1.58-.68,2.57,2.57,0,0,1-.49-1.54,2.37,2.37,0,0,1,.48-1.55,5.5,5.5,0,0,1,1.22-1.11,7.78,7.78,0,0,1,2.2-1,10.26,10.26,0,0,1,3-.43,8.17,8.17,0,0,1,2.59.36,4.61,4.61,0,0,1,1.78,1,4.24,4.24,0,0,1,1.26,2.17,14.16,14.16,0,0,1,.29,3.05v10.29a2.6,2.6,0,0,0,.26,1.31,1,1,0,0,0,.89.43,1.74,1.74,0,0,0,.9-.23,3.85,3.85,0,0,0,.76-.55l.41.63a13,13,0,0,1-1.48,1,3.91,3.91,0,0,1-1.89.39,2.81,2.81,0,0,1-2.55-1,4.22,4.22,0,0,1-.63-2.3,6.21,6.21,0,0,1-2.68,2.63A7.69,7.69,0,0,1,98.6,306.07Zm1.63-1.48a4.18,4.18,0,0,0,2.18-.65,6.17,6.17,0,0,0,2-2.17v-7.25a3.73,3.73,0,0,1-1.72,1.3q-1.17.48-2.4,1.05a6.39,6.39,0,0,0-2.13,1.56,4,4,0,0,0-.89,2.79,3.38,3.38,0,0,0,.85,2.53A2.89,2.89,0,0,0,100.23,304.59Z" transform="translate(-7.93 -9.28)"/><path d="M130.46,279.43l9,23.27a4,4,0,0,0,1.25,1.87,2.8,2.8,0,0,0,1.3.5v.74c-.49-.05-1.1-.08-1.81-.1h-4.85c-.84,0-1.52.05-2,.1v-.74a3.64,3.64,0,0,0,2.41-.65c.34-.38.27-1.2-.22-2.46l-6.88-18.39.59-.48-6.44,16.72a8.69,8.69,0,0,0-.74,3.13,1.79,1.79,0,0,0,.85,1.61,5,5,0,0,0,2.37.52v.74c-.69-.05-1.41-.08-2.17-.1h-3.66c-.43,0-.83.05-1.2.1v-.74a3.92,3.92,0,0,0,1.52-.87,6,6,0,0,0,1.4-2.35l8.7-22.42h.59ZM135,295.15v.74H124l.37-.74Z" transform="translate(-7.93 -9.28)"/><path d="M152.14,286.23a8.72,8.72,0,0,1,2.29.3,6.6,6.6,0,0,1,2,.89,4.16,4.16,0,0,1,1.3,1.27,3,3,0,0,1,.44,1.58,2,2,0,0,1-.55,1.53,1.94,1.94,0,0,1-1.41.54,2.22,2.22,0,0,1-1.42-.48,1.64,1.64,0,0,1-.61-1.37,2,2,0,0,1,.46-1.37,2.07,2.07,0,0,1,1.09-.67,2.89,2.89,0,0,0-1.31-1.11,4.8,4.8,0,0,0-2-.44,4.32,4.32,0,0,0-1.85.44,4.82,4.82,0,0,0-1.7,1.47,7.94,7.94,0,0,0-1.26,2.77,16.93,16.93,0,0,0-.48,4.39,14.66,14.66,0,0,0,.74,5.18,5.68,5.68,0,0,0,1.94,2.75,4.5,4.5,0,0,0,2.65.83,5.81,5.81,0,0,0,2.92-.85,6.16,6.16,0,0,0,2.44-3l.7.26a8.33,8.33,0,0,1-1.22,2.39,6.49,6.49,0,0,1-5.58,2.76,7.56,7.56,0,0,1-4.15-1.19,8.33,8.33,0,0,1-2.94-3.38,11.67,11.67,0,0,1-1.09-5.24,12.41,12.41,0,0,1,1.09-5.35,8.77,8.77,0,0,1,3-3.62A7.84,7.84,0,0,1,152.14,286.23Z" transform="translate(-7.93 -9.28)"/><path d="M166.68,276.84v13.83a6.4,6.4,0,0,1,2.68-3.47,7.32,7.32,0,0,1,3.61-1,6.62,6.62,0,0,1,2.35.37,4.36,4.36,0,0,1,1.57,1,4.2,4.2,0,0,1,1,1.85,12,12,0,0,1,.3,3v9.88a2.7,2.7,0,0,0,.65,2.11A3.32,3.32,0,0,0,181,305v.78l-1.92-.1c-.87,0-1.71,0-2.52,0s-1.61,0-2.39,0l-1.75.1V305a2.61,2.61,0,0,0,1.88-.55,3,3,0,0,0,.56-2.11v-10.7a10.75,10.75,0,0,0-.19-2.11,2.7,2.7,0,0,0-.83-1.55,2.87,2.87,0,0,0-2-.59,4.53,4.53,0,0,0-3.72,1.87,7.61,7.61,0,0,0-1.46,4.83v8.25a3,3,0,0,0,.56,2.11,2.61,2.61,0,0,0,1.88.55v.78l-1.75-.1c-.78,0-1.58,0-2.39,0s-1.65,0-2.52,0l-1.92.1V305a3.32,3.32,0,0,0,2.16-.55,2.7,2.7,0,0,0,.65-2.11V281.28a4.16,4.16,0,0,0-.59-2.46,2.63,2.63,0,0,0-2.22-.8v-.78a22.61,22.61,0,0,0,2.29.11,15.18,15.18,0,0,0,2.06-.13A10.07,10.07,0,0,0,166.68,276.84Z" transform="translate(-7.93 -9.28)"/><path d="M191.69,286.23a8.72,8.72,0,0,1,4.26,1,7.37,7.37,0,0,1,3,3.26,15.25,15.25,0,0,1,0,11.52,7.37,7.37,0,0,1-3,3.24,9.18,9.18,0,0,1-8.49,0,7.37,7.37,0,0,1-3-3.24,15.25,15.25,0,0,1,0-11.52,7.37,7.37,0,0,1,3-3.26A8.72,8.72,0,0,1,191.69,286.23Zm0,.74a4,4,0,0,0-3.46,2.19q-1.35,2.18-1.35,7.14c0,3.3.45,5.68,1.35,7.12a3.85,3.85,0,0,0,6.92,0c.9-1.44,1.35-3.82,1.35-7.12s-.45-5.69-1.35-7.14A4,4,0,0,0,191.69,287Z" transform="translate(-7.93 -9.28)"/><path d="M219.7,286.35v15.46a4.08,4.08,0,0,0,.61,2.46,2.63,2.63,0,0,0,2.2.8v.77c-.76-.07-1.53-.11-2.29-.11a19.08,19.08,0,0,0-2.05.11,7.92,7.92,0,0,0-1.8.41v-4.36a6.5,6.5,0,0,1-2.61,3.42,6.58,6.58,0,0,1-3.46,1,6.39,6.39,0,0,1-2.25-.37,4.35,4.35,0,0,1-1.59-1,4,4,0,0,1-1-1.92,14.27,14.27,0,0,1-.25-2.93v-9.28a4.14,4.14,0,0,0-.6-2.47,2.61,2.61,0,0,0-2.22-.79v-.78a22.81,22.81,0,0,0,2.3.11,15,15,0,0,0,2.05-.13,10.39,10.39,0,0,0,1.8-.38v14.54a13.92,13.92,0,0,0,.14,2.11,2.76,2.76,0,0,0,.74,1.55,2.68,2.68,0,0,0,1.93.59A4.28,4.28,0,0,0,215,303.2a8,8,0,0,0,1.4-4.76v-7.65a4.15,4.15,0,0,0-.59-2.47,2.61,2.61,0,0,0-2.22-.79v-.78a22.61,22.61,0,0,0,2.29.11,15.18,15.18,0,0,0,2.06-.13A10.07,10.07,0,0,0,219.7,286.35Z" transform="translate(-7.93 -9.28)"/><path d="M235.91,286.23a3.72,3.72,0,0,1,1.76.41,3.12,3.12,0,0,1,1.18,1.06,2.61,2.61,0,0,1,.43,1.46,2.54,2.54,0,0,1-.58,1.63,1.89,1.89,0,0,1-1.53.7,2.07,2.07,0,0,1-1.37-.5,1.75,1.75,0,0,1-.59-1.43,2,2,0,0,1,.38-1.2,3.22,3.22,0,0,1,.87-.79.87.87,0,0,0-.77-.37,3.63,3.63,0,0,0-2.7,1.16,9,9,0,0,0-2.45,5.79V302a2.56,2.56,0,0,0,1.06,2.42,5.69,5.69,0,0,0,2.87.61v.78l-2.41-.1c-1,0-2.13,0-3.29,0-.84,0-1.67,0-2.5,0l-1.87.1V305a3.37,3.37,0,0,0,2.17-.55,2.74,2.74,0,0,0,.64-2.11V290.79a4.15,4.15,0,0,0-.59-2.47,2.61,2.61,0,0,0-2.22-.79v-.78a22.81,22.81,0,0,0,2.3.11,15,15,0,0,0,2.05-.13,10.07,10.07,0,0,0,1.79-.38V291a9.56,9.56,0,0,1,1.17-2.16,7.11,7.11,0,0,1,1.83-1.84A4.11,4.11,0,0,1,235.91,286.23Z" transform="translate(-7.93 -9.28)"/></svg>