<svg xmlns="http://www.w3.org/2000/svg" xmlns:xlink="http://www.w3.org/1999/xlink" viewBox="0 0 864.18 240.73"><defs><style>.cls-1,.cls-10,.cls-11,.cls-12,.cls-13,.cls-14,.cls-15,.cls-16,.cls-2,.cls-3,.cls-4,.cls-5,.cls-6,.cls-7,.cls-8,.cls-9{fill:none;stroke-linecap:round;stroke-miterlimit:10;stroke-width:4px;}.cls-1{stroke:url(#Dégradé_sans_nom_272);}.cls-2{stroke:url(#Dégradé_sans_nom_272-2);}.cls-3{stroke:url(#Dégradé_sans_nom_272-3);}.cls-4{stroke:url(#Dégradé_sans_nom_272-4);}.cls-5{stroke:url(#Dégradé_sans_nom_272-5);}.cls-6{stroke:url(#Dégradé_sans_nom_272-6);}.cls-7{stroke:url(#Dégradé_sans_nom_272-7);}.cls-8{stroke:url(#Dégradé_sans_nom_272-8);}.cls-9{stroke:url(#Dégradé_sans_nom_272-9);}.cls-10{stroke:url(#Dégradé_sans_nom_272-10);}.cls-11{stroke:url(#Dégradé_sans_nom_272-11);}.cls-12{stroke:url(#Dégradé_sans_nom_272-12);}.cls-13{stroke:url(#Dégradé_sans_nom_272-13);}.cls-14{stroke:url(#Dégradé_sans_nom_272-14);}.cls-15{stroke:url(#Dégradé_sans_nom_272-15);}.cls-16{stroke:#000;}.cls-17{fill:#ff7a4c;}</style><linearGradient id="Dégradé_sans_nom_272" x1="209.37" y1="87.74" x2="242.44" y2="87.74" gradientUnits="userSpaceOnUse"><stop offset="0" stop-color="#ffc700"/><stop offset="0.15" stop-color="#ffbe03"/><stop offset="0.4" stop-color="#ffa40c"/><stop offset="0.72" stop-color="#ff7b1b"/><stop offset="1" stop-color="#ff512a"/></linearGradient><linearGradient id="Dégradé_sans_nom_272-2" x1="158.62" y1="146.46" x2="213.37" y2="146.46" xlink:href="#Dégradé_sans_nom_272"/><linearGradient id="Dégradé_sans_nom_272-3" x1="181.52" y1="114.86" x2="213.37" y2="114.86" xlink:href="#Dégradé_sans_nom_272"/><linearGradient id="Dégradé_sans_nom_272-4" x1="0" y1="87.99" x2="34.05" y2="87.99" xlink:href="#Dégradé_sans_nom_272"/><linearGradient id="Dégradé_sans_nom_272-5" x1="30.05" y1="115.71" x2="60.92" y2="115.71" xlink:href="#Dégradé_sans_nom_272"/><linearGradient id="Dégradé_sans_nom_272-6" x1="0" y1="31.06" x2="60.92" y2="31.06" xlink:href="#Dégradé_sans_nom_272"/><linearGradient id="Dégradé_sans_nom_272-7" x1="0" y1="30.7" x2="90.24" y2="30.7" xlink:href="#Dégradé_sans_nom_272"/><linearGradient id="Dégradé_sans_nom_272-8" x1="30.05" y1="201.71" x2="123.22" y2="201.71" xlink:href="#Dégradé_sans_nom_272"/><linearGradient id="Dégradé_sans_nom_272-9" x1="30.05" y1="147.61" x2="84.03" y2="147.61" xlink:href="#Dégradé_sans_nom_272"/><linearGradient id="Dégradé_sans_nom_272-10" x1="119.22" y1="200.85" x2="213.37" y2="200.85" xlink:href="#Dégradé_sans_nom_272"/><linearGradient id="Dégradé_sans_nom_272-11" x1="152.69" y1="31.67" x2="242.44" y2="31.67" xlink:href="#Dégradé_sans_nom_272"/><linearGradient id="Dégradé_sans_nom_272-12" x1="181.52" y1="31.67" x2="242.44" y2="31.67" xlink:href="#Dégradé_sans_nom_272"/><linearGradient id="Dégradé_sans_nom_272-13" x1="56.92" y1="58.79" x2="185.52" y2="58.79" xlink:href="#Dégradé_sans_nom_272"/><linearGradient id="Dégradé_sans_nom_272-14" x1="56.92" y1="144.79" x2="123.22" y2="144.79" xlink:href="#Dégradé_sans_nom_272"/><linearGradient id="Dégradé_sans_nom_272-15" x1="119.22" y1="144.79" x2="185.52" y2="144.79" xlink:href="#Dégradé_sans_nom_272"/></defs><g id="Renard"><line class="cls-1" x1="211.37" y1="170.93" x2="240.44" y2="4.56"/><line class="cls-2" x1="160.62" y1="122" x2="211.37" y2="170.93"/><line class="cls-3" x1="183.52" y1="58.79" x2="211.37" y2="170.93"/><line class="cls-4" x1="2" y1="3.34" x2="32.05" y2="172.64"/><line class="cls-5" x1="58.92" y1="58.79" x2="32.05" y2="172.64"/><line class="cls-6" x1="2" y1="3.34" x2="58.92" y2="58.79"/><line class="cls-7" x1="88.24" y1="58.06" x2="2" y2="3.34"/><line class="cls-8" x1="32.05" y1="172.64" x2="121.22" y2="230.78"/><line class="cls-9" x1="82.03" y1="122.59" x2="32.05" y2="172.64"/><line class="cls-10" x1="121.22" y1="230.78" x2="211.37" y2="170.93"/><line class="cls-11" x1="154.69" y1="58.79" x2="240.44" y2="4.56"/><line class="cls-12" x1="183.52" y1="58.79" x2="240.44" y2="4.56"/><line class="cls-13" x1="58.92" y1="58.79" x2="183.52" y2="58.79"/><line class="cls-14" x1="121.22" y1="230.78" x2="58.92" y2="58.79"/><line class="cls-15" x1="183.52" y1="58.79" x2="121.22" y2="230.78"/></g><g id="Texte_et_séparation" data-name="Texte et séparation"><path d="M345.88,99.33a14.15,14.15,0,0,1-9.91,4A17.57,17.57,0,0,1,323.22,98a18.86,18.86,0,0,1-3.9-6.12A21.11,21.11,0,0,1,317.89,84a19,19,0,0,1,1.43-7.32,18.6,18.6,0,0,1,17.34-11.5,18.37,18.37,0,0,1,9.16,2.2,14.29,14.29,0,0,1,5.89,6l-6.47,4.87a9.3,9.3,0,0,0-3.68-4,10.26,10.26,0,0,0-5.22-1.4,8.84,8.84,0,0,0-3.95.87,9.13,9.13,0,0,0-3.05,2.44,11.33,11.33,0,0,0-2,3.63,14,14,0,0,0-.69,4.45,13.38,13.38,0,0,0,.74,4.51,11.18,11.18,0,0,0,2.07,3.58,9.36,9.36,0,0,0,3.15,2.35,9.46,9.46,0,0,0,4.06.85q5.09,0,9.17-4.71V89.68h-7.32V83.37h14.53V103h-7.21Z" transform="translate(-9.03 -9.81)"/><path d="M358.81,103V65.41h17a10.91,10.91,0,0,1,4.9,1.11,13.1,13.1,0,0,1,3.9,2.91,14,14,0,0,1,2.57,4.08,12.14,12.14,0,0,1,.93,4.62,13.34,13.34,0,0,1-.43,3.36,13.05,13.05,0,0,1-1.22,3.05,11.41,11.41,0,0,1-4.5,4.5l8.27,14h-9.81L373.17,90.9H367.5V103Zm8.69-19.72h7.95a3.26,3.26,0,0,0,2.65-1.46,6,6,0,0,0,1.11-3.73,5.22,5.22,0,0,0-1.27-3.71A3.73,3.73,0,0,0,375.19,73H367.5Z" transform="translate(-9.03 -9.81)"/><path d="M404,65.41h7.84L425.54,103h-8.91l-2.91-8.43H402L399.14,103h-8.9Zm8.32,23.21-4.4-13.3-4.51,13.3Z" transform="translate(-9.03 -9.81)"/><path d="M429.25,103V65.41h16.06a11,11,0,0,1,4.95,1.11,12.72,12.72,0,0,1,3.87,2.91,13.91,13.91,0,0,1,2.54,4.08,12.14,12.14,0,0,1,.93,4.62,13.27,13.27,0,0,1-.87,4.77A13.92,13.92,0,0,1,454.29,87a11.57,11.57,0,0,1-3.79,2.86,11.27,11.27,0,0,1-4.93,1.06h-7.63V103Zm8.69-19.72H445A3.35,3.35,0,0,0,447.69,82a5.86,5.86,0,0,0,1.11-3.86,6.68,6.68,0,0,0-.34-2.28,4.58,4.58,0,0,0-.93-1.59,3.47,3.47,0,0,0-1.32-.93,4.15,4.15,0,0,0-1.49-.29h-6.78Z" transform="translate(-9.03 -9.81)"/><path d="M494.65,65.41V103H486V87.61H471V103h-8.7V65.41H471V80h15V65.41Z" transform="translate(-9.03 -9.81)"/><path d="M501.86,103V65.41h8.69V103Z" transform="translate(-9.03 -9.81)"/><path d="M540.33,76.43a5,5,0,0,0-1.11-.8,21.84,21.84,0,0,0-2.39-1.21,22.3,22.3,0,0,0-3.12-1.12,12.38,12.38,0,0,0-3.39-.47q-4.67,0-4.67,3.12a2.45,2.45,0,0,0,.51,1.59,4.17,4.17,0,0,0,1.48,1.14,13,13,0,0,0,2.46.93c1,.28,2.14.6,3.45,1a46.26,46.26,0,0,1,4.87,1.62,13.22,13.22,0,0,1,3.69,2.17,8.82,8.82,0,0,1,2.33,3.16,10.88,10.88,0,0,1,.82,4.45,11.23,11.23,0,0,1-1.19,5.38,10.21,10.21,0,0,1-3.15,3.55,13.43,13.43,0,0,1-4.51,2,22.19,22.19,0,0,1-5.25.61,30.58,30.58,0,0,1-8.48-1.25,34,34,0,0,1-4-1.45,23.14,23.14,0,0,1-3.58-2l3.82-7.58a7.54,7.54,0,0,0,1.38,1,20.7,20.7,0,0,0,2.89,1.49A30.67,30.67,0,0,0,527,95a16,16,0,0,0,4.29.59c3.08,0,4.61-.94,4.61-2.81a2.37,2.37,0,0,0-.69-1.75,6.32,6.32,0,0,0-1.9-1.25,21.66,21.66,0,0,0-2.89-1c-1.11-.32-2.33-.67-3.63-1.06A32.46,32.46,0,0,1,522.31,86a12,12,0,0,1-3.15-2.15A7.84,7.84,0,0,1,517.3,81a10.49,10.49,0,0,1-.61-3.71,11.85,11.85,0,0,1,1.12-5.25,11.29,11.29,0,0,1,3-3.84,13.23,13.23,0,0,1,4.42-2.36,17.63,17.63,0,0,1,5.33-.79,20,20,0,0,1,3.87.37,29.7,29.7,0,0,1,3.66,1,26.09,26.09,0,0,1,3.26,1.33c1,.49,1.93,1,2.78,1.48Z" transform="translate(-9.03 -9.81)"/><path d="M578.76,73H567.31v30h-8.69V73h-11.5V65.41h31.64Z" transform="translate(-9.03 -9.81)"/><path d="M609.44,95.4V103H583V65.41h26V73H591.69v7.31h14.84V87.4H591.69v8Z" transform="translate(-9.03 -9.81)"/><path d="M316.41,108.33v-2.64H611.14v2.64Z" transform="translate(-9.03 -9.81)"/><path d="M320,168V130.41h14.05a20.74,20.74,0,0,1,8.16,1.48,16.42,16.42,0,0,1,9.41,10,22.11,22.11,0,0,1,1.19,7.29,21.67,21.67,0,0,1-1.32,7.76,16.85,16.85,0,0,1-3.79,5.94,17.13,17.13,0,0,1-5.94,3.81,21.12,21.12,0,0,1-7.71,1.36Zm24-18.87a14.66,14.66,0,0,0-.66-4.53,10.32,10.32,0,0,0-1.94-3.53,8.47,8.47,0,0,0-3.12-2.28,10.57,10.57,0,0,0-4.19-.79h-5.35V160.4h5.35a10.19,10.19,0,0,0,4.24-.84,8.77,8.77,0,0,0,3.1-2.36,10.91,10.91,0,0,0,1.91-3.55A14.52,14.52,0,0,0,344,149.17Z" transform="translate(-9.03 -9.81)"/><path d="M384.41,160.4V168H358V130.41h26V138H366.65v7.31h14.84v7.05H366.65v8Zm-10.6-32.49-5.41-1.48,2.76-6.89h7.68Z" transform="translate(-9.03 -9.81)"/><path d="M395.17,130.41,404,157.12l8.74-26.71h9.17L407.67,168h-7.31l-14.42-37.63Z" transform="translate(-9.03 -9.81)"/><path d="M451.88,160.4V168H425.43V130.41h26V138H434.12v7.31H449v7.05H434.12v8Z" transform="translate(-9.03 -9.81)"/><path d="M457.18,168V130.41h8.69v30H484.1V168Z" transform="translate(-9.03 -9.81)"/><path d="M502.28,168.35a17.41,17.41,0,0,1-7.63-1.64,18.69,18.69,0,0,1-5.89-4.32,19.85,19.85,0,0,1-3.79-6.12,19.3,19.3,0,0,1-1.35-7.1A18.73,18.73,0,0,1,485,142a18.92,18.92,0,0,1,9.88-10.25,18.07,18.07,0,0,1,7.53-1.57,17.44,17.44,0,0,1,7.63,1.65,18.44,18.44,0,0,1,5.88,4.34A19.83,19.83,0,0,1,521,149.33a18.89,18.89,0,0,1-1.4,7.15,19.38,19.38,0,0,1-3.9,6.07,19.11,19.11,0,0,1-5.94,4.21A17.69,17.69,0,0,1,502.28,168.35Zm-9.81-19.08a14.24,14.24,0,0,0,.64,4.22,11.19,11.19,0,0,0,1.88,3.63,9.09,9.09,0,0,0,7.34,3.5,9,9,0,0,0,4.35-1,9.52,9.52,0,0,0,3.07-2.62,11.64,11.64,0,0,0,1.83-3.66,14.35,14.35,0,0,0,.61-4.16,13.93,13.93,0,0,0-.64-4.22,10.7,10.7,0,0,0-1.9-3.6,9.64,9.64,0,0,0-3.1-2.49,9.2,9.2,0,0,0-4.22-.93,9.06,9.06,0,0,0-4.32,1,9.7,9.7,0,0,0-3.07,2.57,11,11,0,0,0-1.86,3.63A14.7,14.7,0,0,0,492.47,149.27Z" transform="translate(-9.03 -9.81)"/><path d="M526.07,168V130.41h16.06a11,11,0,0,1,5,1.11,12.72,12.72,0,0,1,3.87,2.91,14.13,14.13,0,0,1,2.54,4.08,12.14,12.14,0,0,1,.93,4.62,13.27,13.27,0,0,1-.87,4.77,13.92,13.92,0,0,1-2.44,4.08,11.68,11.68,0,0,1-3.79,2.86,11.3,11.3,0,0,1-4.93,1.06h-7.63V168Zm8.7-19.72h7.1a3.35,3.35,0,0,0,2.65-1.33,5.86,5.86,0,0,0,1.11-3.86,6.68,6.68,0,0,0-.34-2.28,4.58,4.58,0,0,0-.93-1.59,3.47,3.47,0,0,0-1.32-.93,4.15,4.15,0,0,0-1.49-.29h-6.78Z" transform="translate(-9.03 -9.81)"/><path d="M559.09,168V130.41h16.06a11.08,11.08,0,0,1,5,1.11,12.72,12.72,0,0,1,3.87,2.91,14.34,14.34,0,0,1,2.54,4.08,12.14,12.14,0,0,1,.93,4.62,13.06,13.06,0,0,1-.88,4.77,13.68,13.68,0,0,1-2.43,4.08,11.68,11.68,0,0,1-3.79,2.86,11.3,11.3,0,0,1-4.93,1.06h-7.63V168Zm8.7-19.72h7.1a3.35,3.35,0,0,0,2.65-1.33,5.86,5.86,0,0,0,1.11-3.86,6.68,6.68,0,0,0-.34-2.28,4.58,4.58,0,0,0-.93-1.59,3.43,3.43,0,0,0-1.33-.93,4.1,4.1,0,0,0-1.48-.29h-6.78Z" transform="translate(-9.03 -9.81)"/><path d="M618.56,160.4V168H592.11V130.41h26V138H600.8v7.31h14.84v7.05H600.8v8Z" transform="translate(-9.03 -9.81)"/><path d="M640,160.62a7.17,7.17,0,0,0,3.77-.93,7.44,7.44,0,0,0,2.49-2.47,10.75,10.75,0,0,0,1.35-3.52,21.09,21.09,0,0,0,.4-4.06V130.41h8.69v19.23a26.38,26.38,0,0,1-1,7.32,16.89,16.89,0,0,1-3,5.93,14.17,14.17,0,0,1-5.2,4,20.08,20.08,0,0,1-15.18-.08,14.39,14.39,0,0,1-5.17-4.11,16.83,16.83,0,0,1-2.91-6,26.76,26.76,0,0,1-.93-7.11V130.41H632v19.23a19.11,19.11,0,0,0,.43,4.14,11.08,11.08,0,0,0,1.37,3.5,7.27,7.27,0,0,0,2.47,2.43A7.06,7.06,0,0,0,640,160.62Z" transform="translate(-9.03 -9.81)"/><path d="M686,141.43a5.59,5.59,0,0,0-1.11-.8,22.79,22.79,0,0,0-2.39-1.21,22.44,22.44,0,0,0-3.13-1.12,12.38,12.38,0,0,0-3.39-.47q-4.66,0-4.66,3.12a2.44,2.44,0,0,0,.5,1.59,4.36,4.36,0,0,0,1.48,1.14,13.41,13.41,0,0,0,2.47.93l3.44.95a46.48,46.48,0,0,1,4.88,1.62,13,13,0,0,1,3.68,2.17,8.71,8.71,0,0,1,2.33,3.16A10.88,10.88,0,0,1,691,157a11.11,11.11,0,0,1-1.2,5.38,10,10,0,0,1-3.15,3.55,13.47,13.47,0,0,1-4.5,2,22.31,22.31,0,0,1-5.25.61,29.55,29.55,0,0,1-4.24-.32,29.9,29.9,0,0,1-4.24-.93,33.35,33.35,0,0,1-4-1.45,22.69,22.69,0,0,1-3.58-2l3.82-7.58a7.71,7.71,0,0,0,1.37,1,20.7,20.7,0,0,0,2.89,1.49,30.67,30.67,0,0,0,3.84,1.32,16.16,16.16,0,0,0,4.3.59q4.61,0,4.61-2.81a2.37,2.37,0,0,0-.69-1.75,6.51,6.51,0,0,0-1.91-1.25,20.69,20.69,0,0,0-2.89-1l-3.63-1.06A32.29,32.29,0,0,1,668,151a12.08,12.08,0,0,1-3.16-2.15A7.82,7.82,0,0,1,663,146a10.27,10.27,0,0,1-.61-3.71,11.85,11.85,0,0,1,1.11-5.25,11.41,11.41,0,0,1,3-3.84,13.28,13.28,0,0,1,4.43-2.36,17.58,17.58,0,0,1,5.33-.79,20,20,0,0,1,3.86.37,28.79,28.79,0,0,1,3.66.95,25.48,25.48,0,0,1,3.26,1.33c1,.49,1.94,1,2.78,1.48Z" transform="translate(-9.03 -9.81)"/><path d="M722.49,160.4V168H696V130.41h26V138H704.74v7.31h14.84v7.05H704.74v8Z" transform="translate(-9.03 -9.81)"/><path d="M316.41,173.33v-2.64H724.19v2.64Z" transform="translate(-9.03 -9.81)"/><path d="M332.52,195.46h8l3.82,12,3.82-12h8L349.91,213l3.81,10.12,9.44-27.66h9.48L357.59,233h-7.26l-6-14.74L338.4,233h-7.31l-15-37.63h9.44L335,223.07,338.72,213Z" transform="translate(-9.03 -9.81)"/><path d="M402.37,225.4V233H375.93V195.41h26V203H384.62v7.31h14.84v7.05H384.62v8Z" transform="translate(-9.03 -9.81)"/><path d="M438.79,223.39a8.58,8.58,0,0,1-1,4.24,8.67,8.67,0,0,1-2.76,3,12.88,12.88,0,0,1-4.08,1.81A19.7,19.7,0,0,1,426,233H407.67V195.41h20.94a7.47,7.47,0,0,1,3.55.84,8.91,8.91,0,0,1,2.7,2.2,10,10,0,0,1,1.73,3.08,10.64,10.64,0,0,1,.61,3.52,10.09,10.09,0,0,1-1.36,5.09,8.51,8.51,0,0,1-4,3.6,9.7,9.7,0,0,1,5.11,3.4A9.9,9.9,0,0,1,438.79,223.39Zm-22.42-20.56v7.79h8.53a3.78,3.78,0,0,0,2.54-1,3.66,3.66,0,0,0,1.12-3,4,4,0,0,0-1-2.86,3.18,3.18,0,0,0-2.36-1Zm13.56,18.81a4.52,4.52,0,0,0-1-3,3.17,3.17,0,0,0-2.55-1.22h-10v8.22H426a3.81,3.81,0,0,0,2.81-1.11A4,4,0,0,0,429.93,221.64Z" transform="translate(-9.03 -9.81)"/><path d="M482.72,225.4V233H456.27V195.41h26V203H465v7.31h14.84v7.05H465v8Z" transform="translate(-9.03 -9.81)"/><path d="M516.69,203H505.25v30h-8.7V203h-11.5v-7.63h31.64Z" transform="translate(-9.03 -9.81)"/><path d="M542.5,195.46h8l3.81,12,3.82-12h8.05L559.89,213l3.81,10.12,9.44-27.66h9.49L567.57,233h-7.26l-6-14.74L548.39,233h-7.32l-15-37.63h9.44L545,223.07,548.71,213Z" transform="translate(-9.03 -9.81)"/><path d="M612.36,225.4V233H585.91V195.41h26V203H594.6v7.31h14.84v7.05H594.6v8Z" transform="translate(-9.03 -9.81)"/><path d="M648.77,223.39a8.58,8.58,0,0,1-1,4.24,8.74,8.74,0,0,1-2.75,3,13,13,0,0,1-4.09,1.81A19.62,19.62,0,0,1,636,233H617.66V195.41h20.93a7.47,7.47,0,0,1,3.55.84,9.08,9.08,0,0,1,2.71,2.2,10.19,10.19,0,0,1,1.72,3.08,10.64,10.64,0,0,1,.61,3.52,10.18,10.18,0,0,1-1.35,5.09,8.48,8.48,0,0,1-4.06,3.6,9.76,9.76,0,0,1,5.12,3.4A10,10,0,0,1,648.77,223.39Zm-22.42-20.56v7.79h8.53a3.8,3.8,0,0,0,2.55-1,3.69,3.69,0,0,0,1.11-3,4,4,0,0,0-1-2.86,3.17,3.17,0,0,0-2.36-1Zm13.57,18.81a4.53,4.53,0,0,0-1-3,3.17,3.17,0,0,0-2.54-1.22h-10v8.22H636a3.79,3.79,0,0,0,2.8-1.11A3.94,3.94,0,0,0,639.92,221.64Z" transform="translate(-9.03 -9.81)"/><path d="M695.94,233V210.51l-8.16,16.38h-4.67L675,210.51V233h-8.69V195.41h9.43l9.75,19.66,9.81-19.66h9.38V233Z" transform="translate(-9.03 -9.81)"/><path d="M728.32,233.35a17.41,17.41,0,0,1-7.63-1.64,18.53,18.53,0,0,1-5.88-4.32,19.86,19.86,0,0,1-5.15-13.22,18.73,18.73,0,0,1,1.41-7.16A18.92,18.92,0,0,1,721,196.76a18.07,18.07,0,0,1,7.53-1.57,17.44,17.44,0,0,1,7.63,1.65,18.44,18.44,0,0,1,5.88,4.34,19.83,19.83,0,0,1,5.09,13.15,18.89,18.89,0,0,1-1.4,7.15,19.38,19.38,0,0,1-3.9,6.07,19.18,19.18,0,0,1-5.93,4.21A17.77,17.77,0,0,1,728.32,233.35Zm-9.8-19.08a14.24,14.24,0,0,0,.63,4.22,11.39,11.39,0,0,0,1.88,3.63,9.24,9.24,0,0,0,3.1,2.54,9.86,9.86,0,0,0,8.59,0,9.42,9.42,0,0,0,3.07-2.62,11.24,11.24,0,0,0,1.83-3.66,14.47,14.47,0,0,0,0-8.38,10.72,10.72,0,0,0-1.91-3.6,9.53,9.53,0,0,0-3.1-2.49,9.2,9.2,0,0,0-4.22-.93,9.06,9.06,0,0,0-4.32,1,9.81,9.81,0,0,0-3.07,2.57,10.75,10.75,0,0,0-1.85,3.63A14.35,14.35,0,0,0,718.52,214.27Z" transform="translate(-9.03 -9.81)"/><path d="M783.23,223.39a8.58,8.58,0,0,1-1,4.24,8.74,8.74,0,0,1-2.75,3,13,13,0,0,1-4.09,1.81,19.62,19.62,0,0,1-4.92.61H752.12V195.41h20.93a7.47,7.47,0,0,1,3.55.84,9.08,9.08,0,0,1,2.71,2.2,10.19,10.19,0,0,1,1.72,3.08,10.64,10.64,0,0,1,.61,3.52,10.18,10.18,0,0,1-1.35,5.09,8.58,8.58,0,0,1-4.06,3.6,9.76,9.76,0,0,1,5.12,3.4A10,10,0,0,1,783.23,223.39Zm-22.42-20.56v7.79h8.53a3.8,3.8,0,0,0,2.55-1,3.69,3.69,0,0,0,1.11-3,4,4,0,0,0-1-2.86,3.18,3.18,0,0,0-2.36-1Zm13.57,18.81a4.53,4.53,0,0,0-1-3,3.17,3.17,0,0,0-2.54-1.22h-10v8.22h9.65a3.79,3.79,0,0,0,2.8-1.11A3.94,3.94,0,0,0,774.38,221.64Z" transform="translate(-9.03 -9.81)"/><path d="M788.37,233V195.41h8.69V233Z" transform="translate(-9.03 -9.81)"/><path d="M804.27,233V195.41H813v30h18.23V233Z" transform="translate(-9.03 -9.81)"/><path d="M861.72,225.4V233H835.27V195.41h26V203H844v7.31H858.8v7.05H844v8Z" transform="translate(-9.03 -9.81)"/><path d="M865.63,233v-6.69H871V233Z" transform="translate(-9.03 -9.81)"/><path d="M316.41,238.32V235.7h547v2.62Z" transform="translate(-9.03 -9.81)"/><path d="M863.42,238.32V235.7h9.8v2.62Z" transform="translate(-9.03 -9.81)"/><line class="cls-16" x1="273.91" y1="2" x2="273.91" y2="238.73"/><path class="cls-17" d="M327.55,11.78h2.81l10.73,26.27h-3.55l-3-7.7h-11.3l-3,7.7h-3.55Zm6.05,16L329,15.62l-4.66,12.14Z" transform="translate(-9.03 -9.81)"/><path class="cls-17" d="M344.16,11h3.25V33.15c0,1.07.15,1.72.45,2a1.58,1.58,0,0,0,1.07.37,6.46,6.46,0,0,0,1.48-.16A9.66,9.66,0,0,0,351.6,35l.51,2.67a12.26,12.26,0,0,1-3.88.78,3.76,3.76,0,0,1-4.07-4.09Z" transform="translate(-9.03 -9.81)"/><path class="cls-17" d="M354.67,15.11V11h3.25v4.07Zm0,22.94V18.73h3.25V38.05Z" transform="translate(-9.03 -9.81)"/><path class="cls-17" d="M371.72,38.42a9.84,9.84,0,0,1-4-.79,9.42,9.42,0,0,1-3.11-2.19,10,10,0,0,1-2-3.19,10.61,10.61,0,0,1,.5-8.78,9.31,9.31,0,0,1,3.44-3.58,9.72,9.72,0,0,1,5.15-1.34,9.47,9.47,0,0,1,5,1.27,7.94,7.94,0,0,1,3.17,3.43l-3.19,1a5.22,5.22,0,0,0-2.07-2.12,5.83,5.83,0,0,0-3-.76,6,6,0,0,0-3.23.91,6.53,6.53,0,0,0-2.32,2.51,8.15,8.15,0,0,0,0,7.29,6.85,6.85,0,0,0,2.33,2.58,5.79,5.79,0,0,0,3.24,1,6.08,6.08,0,0,0,2.2-.4,6.22,6.22,0,0,0,1.85-1.1,3.61,3.61,0,0,0,1.09-1.49l3.18,1a7,7,0,0,1-1.79,2.5,9,9,0,0,1-2.85,1.72A10,10,0,0,1,371.72,38.42Z" transform="translate(-9.03 -9.81)"/><path class="cls-17" d="M383.67,15.11V11h3.26v4.07Zm0,22.94V18.73h3.26V38.05Z" transform="translate(-9.03 -9.81)"/><path class="cls-17" d="M390.67,32.5a5,5,0,0,1,1.05-3.19,6.76,6.76,0,0,1,2.91-2.07,11.54,11.54,0,0,1,4.29-.74,20.68,20.68,0,0,1,2.74.2,12.21,12.21,0,0,1,2.55.62v-1.4a4.55,4.55,0,0,0-1.33-3.45,5.29,5.29,0,0,0-3.78-1.26,8.3,8.3,0,0,0-3.05.57A18.11,18.11,0,0,0,393,23.43l-1.18-2.29a15.59,15.59,0,0,1,3.77-1.95,12.06,12.06,0,0,1,3.92-.64,8.14,8.14,0,0,1,5.85,2,7.45,7.45,0,0,1,2.15,5.67v8.11a1.25,1.25,0,0,0,.24.86,1.09,1.09,0,0,0,.79.31v2.52l-.83.11-.58,0a2.23,2.23,0,0,1-1.72-.63,2.3,2.3,0,0,1-.64-1.33L404.65,35a8.16,8.16,0,0,1-3.29,2.52,10.07,10.07,0,0,1-4,.89,7.27,7.27,0,0,1-3.44-.8,5.91,5.91,0,0,1-2.37-2.13A5.43,5.43,0,0,1,390.67,32.5Zm12.58,1.35a4.8,4.8,0,0,0,.7-1.05,2.16,2.16,0,0,0,.26-.89V29.53a13.62,13.62,0,0,0-2.41-.68,13.1,13.1,0,0,0-2.48-.24,7.37,7.37,0,0,0-4,1,3,3,0,0,0-1.54,2.66,3.49,3.49,0,0,0,.5,1.77,3.8,3.8,0,0,0,1.48,1.41,4.91,4.91,0,0,0,2.43.55,7.08,7.08,0,0,0,2.88-.6A6.23,6.23,0,0,0,403.25,33.85Z" transform="translate(-9.03 -9.81)"/><path class="cls-17" d="M429.41,11.78h2.81L443,38.05H439.4l-2.95-7.7h-11.3l-3,7.7h-3.55Zm6,16-4.65-12.14-4.66,12.14Z" transform="translate(-9.03 -9.81)"/><path class="cls-17" d="M453.9,38.42a9.89,9.89,0,0,1-4-.79,9.63,9.63,0,0,1-3.11-2.19,10.46,10.46,0,0,1-1.53-12,9.24,9.24,0,0,1,3.44-3.58,9.68,9.68,0,0,1,5.14-1.34,9.51,9.51,0,0,1,5,1.27A7.92,7.92,0,0,1,462,23.25l-3.18,1a5.22,5.22,0,0,0-2.07-2.12,5.85,5.85,0,0,0-3-.76,6,6,0,0,0-3.24.91,6.59,6.59,0,0,0-2.31,2.51,8.15,8.15,0,0,0,0,7.29,6.77,6.77,0,0,0,2.33,2.58,5.75,5.75,0,0,0,3.24,1,6.12,6.12,0,0,0,2.2-.4,6.22,6.22,0,0,0,1.85-1.1A3.61,3.61,0,0,0,459,32.61l3.18,1a7,7,0,0,1-1.79,2.5,9.27,9.27,0,0,1-2.85,1.72A10,10,0,0,1,453.9,38.42Z" transform="translate(-9.03 -9.81)"/><path class="cls-17" d="M482.61,38.05h-3.26V27.34a7.53,7.53,0,0,0-1.05-4.4,3.49,3.49,0,0,0-3-1.47,5.49,5.49,0,0,0-2.53.66,7.5,7.5,0,0,0-2.24,1.77,6.88,6.88,0,0,0-1.4,2.58V38.05h-3.26V11h3.26V23a8.62,8.62,0,0,1,3.12-3.25,8.11,8.11,0,0,1,4.28-1.19,6.29,6.29,0,0,1,2.9.6,4.89,4.89,0,0,1,1.87,1.71,7.75,7.75,0,0,1,1,2.55,15,15,0,0,1,.31,3.18Z" transform="translate(-9.03 -9.81)"/><path class="cls-17" d="M496.12,38.42a9.72,9.72,0,0,1-4-.79,9.35,9.35,0,0,1-3.07-2.17,9.74,9.74,0,0,1-2-3.18,10.52,10.52,0,0,1,0-7.6,9.74,9.74,0,0,1,2-3.18,9.16,9.16,0,0,1,3.09-2.16,10.27,10.27,0,0,1,7.9,0,9.43,9.43,0,0,1,3.08,2.16,9.63,9.63,0,0,1,2,3.18,10.66,10.66,0,0,1,0,7.6,9.74,9.74,0,0,1-2,3.18,9.33,9.33,0,0,1-3.09,2.17A9.84,9.84,0,0,1,496.12,38.42Zm-6.4-9.88a7.4,7.4,0,0,0,.86,3.58,6.73,6.73,0,0,0,2.32,2.55,5.8,5.8,0,0,0,3.22.93,5.74,5.74,0,0,0,3.23-1,6.77,6.77,0,0,0,2.33-2.58,7.55,7.55,0,0,0,.87-3.61,7.45,7.45,0,0,0-.87-3.59,6.93,6.93,0,0,0-2.33-2.56,5.82,5.82,0,0,0-3.23-.95,5.6,5.6,0,0,0-3.22,1,7.14,7.14,0,0,0-2.32,2.58A7.49,7.49,0,0,0,489.72,28.54Z" transform="translate(-9.03 -9.81)"/><path class="cls-17" d="M509.66,30.36V18.84h3.25V29.72a7.67,7.67,0,0,0,1,4.41A3.51,3.51,0,0,0,517,35.6a6.05,6.05,0,0,0,2.57-.57,6.89,6.89,0,0,0,2.24-1.63,7.47,7.47,0,0,0,1.55-2.53v-12h3.26V34.35a1.31,1.31,0,0,0,.24.87,1.12,1.12,0,0,0,.8.31v2.52l-.87.09-.61,0a2.35,2.35,0,0,1-1.59-.57,1.93,1.93,0,0,1-.71-1.42l-.07-2.24a8.9,8.9,0,0,1-3.39,3.31,9.47,9.47,0,0,1-4.64,1.18,5.43,5.43,0,0,1-4.59-2.05A9.85,9.85,0,0,1,509.66,30.36Z" transform="translate(-9.03 -9.81)"/><path class="cls-17" d="M542.29,21.58A8.09,8.09,0,0,0,538,22.82a6.5,6.5,0,0,0-2.64,3.31V38.05h-3.26V18.84h3v4.37A9.11,9.11,0,0,1,537.76,20a6.58,6.58,0,0,1,3.46-1.39h.63a2.65,2.65,0,0,1,.44,0Z" transform="translate(-9.03 -9.81)"/><path class="cls-17" d="M316.41,42.67V40.82H542v1.85Z" transform="translate(-9.03 -9.81)"/></g></svg>